<?xml version="1.0" standalone="no"?>
<!DOCTYPE svg PUBLIC "-//W3C//DTD SVG 20010904//EN"
 "http://www.w3.org/TR/2001/REC-SVG-20010904/DTD/svg10.dtd">
<svg version="1.0" xmlns="http://www.w3.org/2000/svg"
 width="260.000000pt" height="260.000000pt" viewBox="0 0 260.000000 260.000000"
 preserveAspectRatio="xMidYMid meet">
<metadata>
Created by potrace 1.11, written by Peter Selinger 2001-2013
</metadata>
<g transform="translate(0.000000,260.000000) scale(0.100000,-0.100000)"
fill="#000000" stroke="none">
<path d="M1033 1883 c1 -20 3 -21 17 -8 18 17 34 20 25 6 -3 -5 -1 -12 4 -15
5 -3 11 2 13 12 6 20 -27 29 -38 10 -4 -6 -9 -5 -15 3 -6 10 -8 7 -6 -8z"/>
<path d="M1105 1876 c-12 -18 -21 -23 -29 -17 -7 6 -17 6 -26 1 -9 -6 -20 -4
-29 3 -12 10 -13 9 -6 -3 7 -13 6 -13 -7 -2 -14 11 -18 10 -27 -5 -10 -17 -10
-17 -11 0 0 16 -2 17 -31 1 -30 -15 -32 -15 -25 2 5 15 3 14 -11 -3 -18 -22
-45 -25 -60 -8 -4 4 -2 5 6 0 9 -5 12 -4 7 3 -10 17 -15 15 -26 -10 -7 -18 -9
-19 -9 -5 -1 14 -5 16 -19 8 -13 -7 -23 -6 -32 2 -9 8 -11 9 -6 0 3 -6 0 -14
-6 -17 -7 -3 3 -3 22 0 19 3 32 2 28 -1 -7 -8 -34 -13 -66 -14 -16 -1 -21 -5
-16 -13 6 -10 4 -10 -7 0 -17 16 -32 16 -26 -1 3 -8 -3 -14 -15 -14 -17 -2
-18 0 -6 15 10 13 7 13 -9 -2 -13 -10 -21 -22 -18 -26 2 -4 -11 -12 -30 -18
-26 -7 -34 -7 -29 1 3 7 -4 0 -15 -15 -15 -18 -28 -24 -41 -21 -12 3 -20 0
-20 -6 0 -7 6 -9 13 -5 7 4 9 3 4 -2 -9 -9 -13 -10 -43 -13 -9 -1 -12 -6 -8
-13 5 -9 2 -8 -9 1 -15 12 -17 12 -12 -1 3 -8 -4 -23 -15 -33 -18 -16 -23 -17
-30 -5 -8 13 -10 13 -11 0 -1 -8 -1 -18 0 -22 0 -5 -5 -8 -13 -8 -7 0 -20 -8
-27 -17 -12 -14 -12 -16 0 -8 10 5 12 4 7 -4 -4 -6 -12 -9 -17 -6 -5 4 -9 -1
-9 -9 0 -8 -11 -23 -25 -34 -13 -11 -21 -23 -17 -27 4 -5 1 -5 -7 0 -11 6 -8
12 12 27 15 11 27 24 27 29 0 5 -13 -3 -30 -17 -16 -15 -27 -31 -24 -35 3 -5
0 -9 -5 -9 -6 0 -11 -9 -11 -20 0 -11 -7 -20 -15 -20 -8 0 -15 -5 -15 -11 0
-5 5 -7 12 -3 6 4 8 3 4 -4 -3 -6 -15 -9 -26 -7 -18 3 -19 1 -8 -18 10 -20 10
-21 -6 -8 -9 8 -16 10 -15 5 1 -5 0 -11 -1 -14 -8 -21 -7 -39 2 -34 7 5 8 2 4
-5 -5 -7 -15 -10 -24 -6 -9 3 -13 3 -9 -1 4 -4 -1 -16 -10 -27 -10 -11 -13
-17 -6 -14 6 4 14 3 18 -3 3 -5 1 -10 -5 -10 -6 0 -9 -4 -5 -9 3 -5 1 -12 -5
-16 -6 -4 -7 -11 -4 -17 4 -7 2 -8 -4 -4 -8 5 -12 0 -12 -13 0 -12 -4 -21 -10
-21 -5 0 -6 8 -3 17 6 15 5 16 -9 3 -14 -13 -14 -16 1 -28 9 -7 11 -11 4 -7
-9 4 -11 -3 -8 -25 2 -16 -1 -33 -7 -36 -7 -4 -8 -2 -4 4 5 8 1 10 -9 5 -9 -3
-12 -9 -7 -12 10 -6 15 -25 13 -50 -1 -11 -4 -11 -16 -1 -20 16 -19 6 1 -14 9
-9 11 -16 4 -16 -6 0 -8 -4 -5 -10 3 -5 0 -7 -8 -4 -8 3 -18 0 -22 -6 -3 -6
-1 -9 6 -8 8 2 14 -8 14 -24 1 -23 -1 -25 -14 -15 -12 10 -13 9 -1 -13 9 -17
10 -25 1 -28 -6 -2 -8 -9 -4 -15 9 -14 12 -57 3 -54 -3 1 -5 -2 -5 -8 0 -5 4
-9 10 -7 5 1 1 -5 -9 -13 -14 -11 -16 -15 -5 -15 12 0 12 -2 -1 -9 -8 -6 -17
-8 -21 -5 -14 8 -22 -17 -10 -29 9 -9 11 -8 6 4 -4 10 0 16 10 16 8 0 15 -4
15 -9 0 -5 5 -6 12 -2 7 4 8 3 4 -5 -4 -6 -13 -8 -19 -4 -7 4 -5 -1 3 -12 14
-17 13 -17 -10 -11 -21 6 -22 5 -7 -4 11 -7 16 -18 12 -30 -4 -12 0 -20 12
-23 14 -4 14 -5 -4 -6 -12 0 -25 -6 -29 -13 -5 -7 -2 -9 9 -5 8 3 25 -3 38
-14 17 -14 24 -16 30 -7 4 7 5 17 2 23 -3 5 0 5 6 -1 10 -9 10 -17 2 -33 -10
-17 -9 -20 4 -15 9 4 13 9 11 12 -8 7 14 32 27 32 7 0 7 -4 -1 -12 -7 -7 -12
-17 -12 -22 0 -6 5 -3 11 7 6 10 16 14 22 10 7 -3 3 4 -8 16 -11 12 -15 22
-10 21 20 -4 35 0 35 11 0 5 -5 7 -10 4 -6 -3 -10 -3 -11 2 -5 41 -5 62 1 58
3 -2 11 4 17 14 9 14 8 18 -3 18 -7 0 -10 -5 -7 -10 4 -6 1 -7 -7 -2 -10 6 -9
11 6 22 10 8 19 26 19 41 0 15 4 32 8 39 4 6 2 15 -4 19 -8 5 -9 3 -4 -6 5 -9
4 -11 -3 -6 -9 5 -9 13 -1 28 6 11 8 29 6 40 -4 14 -2 17 7 9 8 -7 12 -5 12 9
0 10 -3 17 -7 14 -4 -2 -9 3 -12 11 -4 9 -1 12 9 8 7 -3 14 0 14 6 0 6 -6 11
-12 11 -9 0 -9 3 1 9 8 5 12 18 8 30 -3 13 0 21 8 21 7 0 13 6 12 13 -1 32 4
48 13 42 6 -3 10 5 10 19 0 32 10 57 20 51 5 -3 12 0 16 6 4 8 3 9 -4 5 -7 -4
-12 -1 -12 9 0 11 5 15 16 11 8 -3 12 -2 9 3 -3 5 -1 13 5 16 8 5 7 12 -2 23
-11 13 -11 14 1 7 11 -6 13 -4 8 7 -7 19 11 38 29 31 10 -4 12 0 7 13 -4 11
-3 15 4 11 6 -4 17 1 26 11 15 17 17 21 17 43 0 5 5 7 10 4 6 -3 10 -2 10 4 0
5 -6 12 -12 14 -8 3 -5 6 5 6 10 1 15 5 12 11 -4 6 1 7 11 3 14 -5 16 -3 11
12 -7 16 -5 16 9 4 16 -13 16 -12 4 11 -12 23 -12 24 3 11 14 -11 17 -11 18 0
1 8 1 18 0 23 -1 5 5 4 13 -3 13 -11 15 -10 11 6 -2 12 2 20 10 20 8 0 11 -7
7 -15 -4 -11 -1 -13 7 -8 7 5 11 16 8 25 -3 12 2 17 17 17 14 -1 21 5 20 17
-2 18 -1 18 19 0 11 -10 17 -12 13 -6 -4 7 -2 21 4 30 10 16 11 16 6 1 -3 -12
-1 -15 9 -11 8 3 13 8 11 12 -3 4 4 12 15 19 15 10 19 10 19 0 0 -9 3 -8 10 2
8 12 13 13 29 3 24 -15 37 -1 33 32 -2 13 0 16 5 8 9 -13 44 -12 42 2 -1 13
25 25 32 13 4 -6 16 -4 35 8 24 16 27 16 16 2 -12 -14 -10 -16 8 -11 15 4 20
11 17 24 -4 15 -2 17 13 9 9 -5 20 -7 23 -4 3 3 12 2 19 -2 20 -13 39 -14 31
-1 -4 7 0 8 12 3 15 -5 16 -4 5 9 -11 13 -11 16 1 13 8 -2 19 -9 25 -17 9 -11
12 -12 19 -1 5 9 4 11 -3 6 -7 -4 -12 -3 -12 3 0 5 9 9 19 8 11 0 18 -4 16 -7
-2 -3 7 -6 20 -6 13 0 22 3 20 6 -2 4 2 7 9 7 8 0 12 -6 9 -14 -4 -9 0 -11 13
-7 17 5 17 4 -1 -11 -20 -17 -20 -17 1 -11 14 4 21 2 21 -8 0 -9 -4 -13 -9
-10 -4 3 -8 0 -8 -5 0 -6 8 -11 18 -11 14 0 15 -2 2 -9 -8 -6 -18 -7 -24 -4
-5 3 -6 1 -2 -6 4 -6 11 -9 16 -6 5 3 12 0 16 -6 4 -7 3 -9 -4 -5 -7 4 -10 -3
-8 -21 2 -16 5 -28 6 -28 1 0 3 -8 5 -18 2 -9 -1 -15 -5 -12 -11 7 -9 -36 2
-52 6 -7 4 -14 -3 -19 -8 -4 -9 -3 -5 4 4 7 2 12 -3 12 -6 0 -11 -7 -11 -15 0
-8 5 -15 12 -15 6 0 8 -3 5 -6 -3 -4 -2 -16 4 -27 8 -14 8 -18 0 -12 -8 4 -10
-2 -7 -19 3 -15 1 -24 -4 -21 -5 3 -8 -4 -7 -15 1 -11 4 -20 8 -20 4 0 6 -14
4 -30 -3 -22 -1 -29 8 -24 7 4 3 -3 -8 -16 -11 -13 -15 -20 -8 -17 6 4 15 2
19 -4 4 -8 3 -9 -4 -5 -7 4 -12 1 -12 -9 0 -10 5 -13 13 -9 9 6 9 5 0 -8 -7
-8 -10 -18 -6 -22 4 -4 0 -4 -10 0 -9 3 -17 2 -17 -4 0 -6 5 -12 12 -14 7 -3
5 -7 -6 -11 -9 -4 -15 -3 -12 1 2 4 1 14 -5 22 -7 13 -9 12 -9 -2 0 -10 -3
-18 -7 -19 -5 0 -21 -2 -38 -4 -16 -1 -24 -1 -17 2 9 3 4 10 -13 19 -31 16
-48 19 -25 4 12 -8 11 -10 -7 -10 -12 0 -30 -3 -40 -7 -16 -6 -17 -5 -3 12 14
17 14 17 -8 4 -20 -12 -24 -12 -33 1 -9 13 -10 12 -5 -2 3 -10 4 -18 2 -18 -3
0 -13 -3 -23 -6 -15 -5 -16 -4 -3 6 12 9 3 11 -42 7 -48 -3 -55 -1 -50 12 3 9
-5 5 -16 -8 l-22 -24 -1 24 0 24 -9 -22 c-5 -13 -15 -23 -22 -23 -9 0 -9 3 2
10 12 8 9 10 -13 10 -20 0 -26 -4 -21 -12 6 -9 3 -9 -9 0 -9 8 -25 11 -36 7
-17 -5 -20 -3 -14 12 4 13 1 12 -15 -6 l-22 -24 -1 24 0 24 -9 -22 c-5 -13
-15 -23 -22 -23 -9 0 -9 3 2 10 12 8 9 10 -13 10 -16 0 -26 -4 -22 -10 3 -5 0
-7 -9 -4 -8 3 -14 11 -12 17 1 7 1 9 -1 4 -3 -4 -10 -4 -15 -1 -6 4 -8 2 -5
-3 4 -6 0 -14 -9 -17 -12 -5 -14 -1 -8 16 6 21 6 21 -10 5 -10 -9 -22 -14 -28
-11 -7 4 -8 2 -4 -5 4 -6 12 -9 17 -6 13 9 11 -11 -4 -27 -6 -7 -12 -22 -11
-33 0 -11 -4 -27 -10 -35 -6 -8 -7 -12 -2 -8 5 4 15 0 23 -8 12 -12 18 -12 31
-2 9 7 13 8 10 3 -4 -6 5 -15 18 -22 13 -6 22 -8 19 -3 -3 4 3 14 12 21 14 12
15 11 9 -11 -4 -14 -4 -20 1 -15 4 6 17 10 28 9 11 0 29 7 39 15 11 9 16 10
12 4 -4 -8 -1 -13 9 -13 10 0 14 -5 9 -12 -5 -10 -3 -10 7 0 12 11 12 14 -1
23 -11 7 -7 8 14 5 16 -3 38 -13 49 -23 11 -10 18 -13 14 -7 -3 5 7 15 24 21
33 13 37 7 12 -14 -13 -11 -10 -10 9 1 31 18 42 20 33 6 -3 -6 1 -7 9 -4 9 3
16 1 16 -5 0 -6 8 -3 18 7 11 9 17 21 14 26 -3 5 0 6 7 2 9 -6 9 -11 1 -21 -8
-10 -8 -15 1 -21 8 -5 9 -3 4 6 -6 10 -4 12 9 7 13 -5 17 -3 13 7 -8 21 34 11
50 -11 7 -9 13 -12 13 -6 0 6 8 10 18 8 9 -1 26 5 36 14 11 9 16 10 12 4 -5
-10 7 -12 54 -9 61 4 82 -6 61 -27 -9 -9 -11 -8 -8 3 2 8 2 12 0 8 -7 -12 -4
-23 7 -24 6 -1 14 -2 19 -3 11 -1 9 -20 -3 -40 -5 -8 -3 -16 5 -22 9 -5 10 -9
2 -9 -6 0 -9 -9 -6 -20 3 -11 1 -20 -4 -20 -6 0 -9 12 -7 26 1 14 0 23 -4 20
-11 -12 -9 -48 5 -53 7 -3 10 -9 7 -14 -3 -5 -10 -6 -16 -3 -7 4 -8 2 -4 -5 4
-6 11 -9 16 -6 4 3 14 -3 21 -13 12 -15 12 -16 -2 -5 -16 13 -29 8 -29 -9 0
-5 4 -6 10 -3 6 4 7 -1 3 -11 -5 -13 -3 -15 7 -9 10 6 11 4 4 -6 -14 -23 -16
-51 -2 -43 7 4 8 3 4 -5 -4 -6 -12 -9 -17 -6 -5 3 -6 -2 -2 -11 5 -13 3 -15
-8 -9 -12 7 -12 6 -1 -7 11 -14 10 -18 -5 -27 -10 -6 -14 -11 -9 -11 5 0 18 8
29 17 19 18 20 17 8 -5 -7 -13 -10 -26 -7 -30 3 -3 6 0 6 6 0 7 7 12 15 12 8
0 15 -5 15 -11 0 -5 -5 -7 -12 -3 -6 4 -8 3 -4 -4 3 -6 18 -8 33 -6 20 4 24 2
17 -8 -5 -8 1 -3 13 11 12 14 20 28 18 32 -3 4 3 6 12 5 9 0 18 6 20 14 4 13
3 13 -6 0 -9 -13 -11 -13 -11 0 0 9 6 22 13 29 10 11 9 12 -2 6 -10 -6 -13 -4
-8 7 3 9 0 21 -6 27 -9 9 -7 11 8 6 19 -6 19 -6 3 8 -10 8 -15 17 -11 20 3 4
13 1 21 -6 13 -11 14 -9 2 10 -8 12 -18 20 -22 17 -4 -3 -5 2 -2 10 3 9 10 14
14 11 5 -3 6 4 3 15 -3 11 -8 18 -12 16 -4 -3 -8 4 -8 15 -1 10 3 19 8 19 6 0
7 -5 3 -12 -4 -6 -3 -8 3 -5 6 4 8 18 6 32 -3 15 -10 22 -17 18 -6 -4 -5 1 3
10 7 9 10 17 6 17 -4 0 -2 7 5 15 11 13 10 14 -1 10 -10 -4 -15 1 -15 15 0 11
3 20 6 20 3 0 6 9 7 20 1 13 -2 18 -10 13 -7 -4 -6 0 2 10 7 9 10 17 6 17 -4
0 -2 7 5 15 11 13 10 14 -1 10 -10 -4 -15 1 -15 15 0 11 3 20 6 20 3 0 6 9 7
20 1 13 -2 18 -10 13 -7 -4 -6 0 2 10 7 9 10 17 6 17 -4 0 -2 7 5 15 11 13 10
14 -1 10 -10 -4 -15 1 -15 15 0 11 3 20 6 20 3 0 6 9 7 20 1 13 -2 18 -10 13
-9 -5 -9 -3 0 8 6 8 13 19 15 24 1 6 7 9 11 7 5 -1 6 2 2 7 -3 6 -11 8 -18 5
-8 -3 -13 4 -13 16 0 11 3 20 6 20 3 0 6 9 7 20 1 13 -2 18 -10 13 -7 -4 -6 0
2 10 7 9 10 17 6 17 -4 0 -2 7 5 15 11 13 10 14 -1 10 -10 -4 -15 1 -15 15 0
11 3 20 6 20 3 0 6 9 7 20 1 13 -2 18 -10 13 -7 -4 -6 0 2 10 7 9 10 17 5 18
-5 0 0 4 11 9 19 8 19 9 -3 9 -20 1 -21 4 -12 21 8 14 8 20 0 20 -6 0 -8 5 -5
10 4 6 11 8 16 5 5 -3 6 1 3 9 -3 9 -10 13 -15 10 -5 -3 -6 2 -3 10 3 9 10 13
15 10 5 -3 6 3 2 12 -5 13 -3 15 8 9 11 -7 11 -5 -1 9 -8 11 -13 30 -12 44 3
15 0 22 -7 18 -6 -4 -11 -2 -11 3 0 6 7 11 15 11 12 0 12 4 -2 29 -12 21 -25
28 -47 29 -17 0 -35 -3 -42 -8 -7 -7 -11 -5 -11 5 0 8 4 12 8 10 3 -3 12 2 18
9 10 12 9 14 -5 12 -9 -1 -25 -13 -36 -27 -11 -13 -16 -18 -12 -10 5 11 3 13
-9 8 -10 -3 -17 -2 -17 2 0 5 6 11 13 14 6 2 9 8 5 11 -3 4 -14 -4 -23 -18z
m-135 -135 c0 -6 -4 -13 -10 -16 -5 -3 -10 1 -10 9 0 9 5 16 10 16 6 0 10 -4
10 -9z m-196 -49 c3 -5 -1 -9 -9 -9 -8 0 -12 4 -9 9 3 4 7 8 9 8 2 0 6 -4 9
-8z m-44 -36 c0 -11 -19 -15 -25 -6 -3 5 1 10 9 10 9 0 16 -2 16 -4z m-358
-251 c0 -5 -5 -10 -11 -11 -8 -2 -7 -1 0 3 8 4 7 8 -2 15 -11 8 -11 9 -1 6 8
-2 14 -8 14 -13z m643 -225 c-3 -5 -12 -10 -18 -10 -7 0 -6 4 3 10 19 12 23
12 15 0z m-562 -62 c-11 -16 -11 -28 2 -48 7 -13 6 -13 -7 -2 -9 7 -15 18 -14
25 2 15 16 37 23 37 3 0 1 -6 -4 -12z m117 -59 c0 -5 -4 -9 -8 -9 -5 0 -9 7
-9 15 0 8 4 12 9 9 4 -3 8 -9 8 -15z m-60 1 c0 -5 -2 -10 -4 -10 -3 0 -8 5
-11 10 -3 6 -1 10 4 10 6 0 11 -4 11 -10z m320 0 c0 -5 -2 -10 -4 -10 -3 0 -8
5 -11 10 -3 6 -1 10 4 10 6 0 11 -4 11 -10z m-669 -123 c-10 -9 -11 -8 -5 6 3
10 9 15 12 12 3 -3 0 -11 -7 -18z m15 -72 c0 -19 -3 -22 -13 -13 -10 8 -10 14
-2 24 15 18 15 18 15 -11z"/>
<path d="M1212 1891 c4 -13 18 -16 19 -4 0 4 -5 9 -11 12 -7 2 -11 -2 -8 -8z"/>
<path d="M1255 1891 c-3 -5 -2 -12 3 -15 5 -3 9 1 9 9 0 17 -3 19 -12 6z"/>
<path d="M1582 1883 c-18 -9 -31 -18 -28 -20 2 -3 18 3 35 11 19 10 32 12 36
6 4 -6 3 -10 -2 -9 -18 3 -34 -1 -29 -9 2 -4 -3 -8 -12 -8 -9 0 -30 -3 -47 -7
-19 -5 -25 -4 -16 1 8 6 9 12 3 16 -6 3 -13 -3 -17 -14 -3 -11 -11 -20 -16
-20 -6 0 -7 -6 -3 -12 5 -9 2 -8 -10 1 -15 13 -18 12 -23 -7 -3 -12 -10 -19
-16 -15 -7 4 -8 0 -3 -12 6 -16 4 -16 -11 -4 -14 12 -16 12 -11 -1 6 -17 -16
-42 -28 -32 -5 4 -3 0 4 -10 10 -12 10 -18 1 -24 -8 -4 -9 -3 -5 4 4 7 2 12
-5 12 -6 0 -9 -8 -6 -20 3 -14 0 -20 -10 -20 -13 0 -13 -2 -2 -17 10 -11 10
-14 2 -9 -16 9 -17 -6 -2 -21 7 -7 6 -12 -6 -17 -11 -4 -14 -2 -9 7 5 9 3 8
-7 -1 -10 -9 -11 -15 -3 -20 7 -4 12 -20 12 -36 0 -19 -3 -24 -9 -15 -7 11 -9
10 -9 -4 0 -11 -4 -15 -12 -11 -7 4 -8 3 -4 -4 4 -6 12 -9 20 -6 7 3 13 -2 13
-10 0 -8 -4 -13 -7 -11 -4 3 -7 -6 -7 -20 0 -14 3 -22 7 -20 5 3 7 -3 5 -12
-2 -10 -4 -24 -4 -31 -1 -7 -6 -10 -11 -7 -8 5 -7 12 2 23 12 15 11 16 -5 3
-16 -12 -16 -16 -2 -31 17 -19 20 -34 4 -24 -8 4 -7 0 1 -15 6 -12 16 -18 22
-15 7 4 8 3 4 -5 -4 -6 -11 -9 -16 -6 -5 3 -12 0 -16 -6 -4 -7 -3 -9 4 -5 16
10 26 -14 12 -27 -10 -9 -11 -9 -6 1 4 6 2 12 -3 12 -14 0 -14 -6 0 -31 5 -11
15 -16 21 -13 7 4 8 3 4 -5 -4 -6 -11 -9 -16 -6 -5 3 -12 1 -15 -5 -4 -6 -1
-9 6 -8 6 2 14 -3 16 -10 3 -7 -1 -10 -10 -6 -8 3 -18 0 -23 -7 -5 -8 -3 -10
6 -4 10 6 12 4 6 -10 -6 -16 -4 -16 10 -4 15 12 17 12 12 -1 -3 -8 1 -22 8
-31 12 -13 12 -16 -1 -16 -8 0 -12 4 -10 8 3 4 -1 9 -9 12 -10 4 -12 0 -8 -15
4 -16 2 -19 -8 -13 -8 5 -11 4 -6 -3 4 -6 13 -9 21 -6 11 4 13 -1 9 -22 -3
-15 -9 -35 -15 -46 -9 -18 -1 -24 25 -19 5 1 4 -5 -3 -13 -7 -8 -9 -21 -5 -27
4 -8 3 -9 -4 -5 -7 4 -12 2 -12 -3 0 -6 5 -11 10 -11 6 0 10 -5 10 -11 0 -5
-4 -7 -10 -4 -5 3 -10 -1 -10 -10 0 -9 4 -14 9 -11 5 4 8 -1 7 -11 -2 -9 -11
-20 -21 -23 -17 -6 -16 -7 6 -14 13 -5 28 -7 34 -6 5 1 6 -2 2 -7 -5 -4 -13
-8 -18 -8 -5 0 -9 -3 -9 -7 0 -5 0 -12 0 -18 0 -5 5 -10 11 -10 5 0 7 5 4 10
-3 6 -2 10 3 10 5 0 9 -15 10 -32 1 -23 9 -39 28 -55 24 -18 26 -24 14 -38
-11 -13 -10 -15 4 -9 9 3 16 11 16 17 0 6 3 7 6 4 4 -4 1 -14 -7 -24 -11 -13
-11 -15 -1 -9 8 5 19 1 28 -10 9 -11 13 -14 10 -7 -4 6 -1 15 5 19 8 4 9 3 5
-4 -4 -7 -2 -12 5 -12 8 0 8 -4 1 -12 -8 -10 -4 -13 14 -14 14 -1 21 2 17 9
-3 6 -1 7 6 3 6 -4 9 -12 5 -18 -3 -5 2 -8 12 -7 11 2 28 -2 39 -8 11 -6 28
-9 38 -8 9 2 15 -1 11 -6 -3 -5 2 -9 11 -9 9 0 14 -4 11 -8 -3 -5 1 -9 9 -9
10 0 13 8 11 24 -3 13 -1 21 5 18 5 -4 7 -11 4 -16 -4 -5 -1 -9 5 -9 6 0 9 -3
6 -8 -6 -9 510 -9 520 1 10 10 26 9 20 -1 -3 -5 1 -9 9 -9 12 0 12 4 -2 21
-10 12 -14 18 -9 14 5 -4 15 -3 23 3 10 9 17 8 30 -2 11 -10 14 -10 9 -1 -4 6
-3 12 1 12 5 0 15 -6 22 -12 11 -11 11 -9 2 9 -9 18 -8 21 7 18 9 -1 23 2 30
8 7 5 15 7 19 3 3 -3 1 -6 -5 -6 -7 0 -12 -4 -12 -10 0 -5 5 -9 12 -7 7 1 12
-3 13 -10 0 -6 4 -15 8 -20 5 -4 8 -3 7 2 -4 20 0 35 11 35 5 0 7 -4 4 -10 -3
-5 -1 -18 4 -27 10 -16 11 -16 17 6 6 22 8 22 19 7 11 -15 13 -15 19 -1 3 9
10 13 16 10 6 -4 7 1 3 11 -5 13 -3 15 8 10 8 -4 5 0 -5 8 -19 15 -19 16 -2
16 16 0 16 2 6 16 -11 12 -11 15 1 12 8 -2 17 -7 21 -13 5 -6 8 -5 8 3 0 7
-11 17 -24 24 -25 11 -43 38 -26 38 6 0 10 -5 10 -12 0 -6 3 -8 6 -5 10 10
-17 38 -29 30 -6 -3 -7 -1 -3 6 4 6 12 9 17 6 5 -4 9 -3 10 2 0 4 2 16 4 26 2
9 -1 15 -6 11 -5 -3 -6 -10 -3 -16 5 -7 2 -8 -6 -3 -10 6 -8 12 8 26 27 21 28
30 5 23 -11 -4 -14 -3 -7 3 6 4 10 16 8 26 -1 9 2 15 7 11 5 -3 9 2 9 11 0 9
-4 14 -9 10 -5 -3 -13 -1 -16 5 -4 6 -1 9 7 8 8 -2 12 4 10 15 -2 9 2 17 8 17
6 0 8 -6 4 -12 -4 -8 -3 -9 2 -5 5 5 9 14 9 20 0 7 4 12 10 12 5 0 9 -4 7 -8
-1 -5 2 -6 7 -2 13 8 2 35 -14 35 -7 0 -15 -7 -19 -15 -3 -8 -11 -15 -18 -15
-9 0 -10 3 -2 8 6 4 10 15 8 24 -1 10 3 21 8 25 7 4 8 1 3 -8 -6 -11 -5 -12 5
-2 9 8 18 9 25 3 7 -6 11 -3 11 10 0 10 -4 16 -9 13 -4 -3 -19 -6 -33 -8 -17
-2 -22 1 -15 8 7 7 7 16 0 30 -8 15 -8 18 1 12 9 -5 10 -1 5 14 -4 13 -2 21 5
21 6 0 9 -4 5 -9 -3 -6 5 -15 17 -21 19 -9 21 -9 8 2 -8 7 -17 22 -18 32 -3
18 -2 19 15 5 16 -13 17 -12 5 3 -8 9 -11 23 -7 30 4 7 -2 2 -13 -12 -12 -14
-24 -21 -28 -17 -4 4 -2 7 4 7 6 0 9 9 7 20 -2 11 1 23 7 26 7 5 8 2 3 -7 -6
-11 -5 -12 5 -2 9 8 18 9 25 3 7 -6 11 -3 11 10 0 10 -4 16 -9 13 -4 -3 -19
-6 -33 -8 -17 -2 -22 1 -15 8 7 7 7 16 0 30 -8 14 -8 18 0 13 6 -4 11 -3 11 3
0 5 -5 13 -10 16 -6 4 -7 12 -3 18 12 19 13 58 1 51 -7 -4 -8 -2 -4 4 5 9 15
7 34 -4 25 -15 26 -15 7 0 -17 15 -18 18 -5 27 11 8 9 9 -10 3 -22 -6 -23 -5
-12 9 11 13 10 17 -5 26 -10 6 -13 11 -7 11 6 0 22 -9 36 -19 23 -18 24 -18
24 -1 0 10 -4 16 -8 14 -4 -3 -18 2 -30 10 -15 11 -18 16 -8 16 10 0 11 3 4 8
-6 4 -10 19 -8 35 1 15 -1 25 -6 22 -5 -3 -12 -1 -15 5 -4 6 -1 9 5 8 7 -2 14
7 16 20 3 16 0 21 -8 16 -6 -4 -8 -3 -4 4 3 5 3 12 -1 15 -5 2 -2 2 5 1 6 -2
12 1 12 6 0 6 -4 10 -10 10 -5 0 -6 7 -3 17 4 10 2 14 -4 10 -5 -3 -10 0 -10
8 0 8 4 12 9 9 4 -3 8 0 8 5 0 6 -8 11 -17 11 -10 0 -14 4 -8 8 6 4 11 13 13
21 3 12 1 12 -14 0 -16 -12 -17 -12 -11 3 3 10 2 20 -4 23 -5 4 -6 11 -3 17 4
7 2 8 -4 4 -7 -4 -12 -1 -12 9 0 11 -5 15 -16 11 -9 -3 -12 -2 -9 5 7 10 -22
38 -39 39 -6 0 -2 -6 9 -13 14 -11 15 -16 5 -22 -8 -5 -11 -4 -7 2 4 6 0 14
-9 17 -9 4 -14 13 -10 21 4 12 0 14 -18 9 -13 -3 -27 -1 -31 6 -5 7 -11 8 -19
1 -8 -7 -12 -4 -13 12 -1 12 3 25 10 29 9 6 9 8 0 8 -7 0 -17 -9 -23 -20 -11
-21 -30 -19 -30 3 0 7 4 6 10 -3 8 -13 10 -13 10 1 0 20 -80 26 -92 7 -5 -8
-8 -9 -8 -2 0 8 -42 12 -127 13 -87 1 -123 -2 -113 -9 9 -6 10 -10 3 -10 -6 0
-15 4 -18 10 -8 12 -67 9 -77 -5 -5 -6 -8 -6 -8 2 0 14 -150 13 -150 -2 0 -7
-3 -7 -8 0 -11 16 -35 16 -70 -2z m213 -3 c-3 -5 -12 -10 -18 -10 -7 0 -6 4 3
10 19 12 23 12 15 0z m235 0 c0 -5 -4 -10 -10 -10 -5 0 -10 5 -10 10 0 6 5 10
10 10 6 0 10 -4 10 -10z m65 0 c3 -6 -1 -7 -9 -4 -18 7 -21 14 -7 14 6 0 13
-4 16 -10z m-430 -130 c-4 -19 -3 -19 23 -2 14 9 23 11 19 5 -5 -7 -5 -13 0
-14 4 0 16 -2 25 -4 12 -2 15 2 11 13 -5 14 -2 14 16 -2 15 -14 20 -15 16 -5
-4 11 2 15 24 14 16 0 27 -3 24 -7 -2 -5 1 -8 6 -8 6 0 11 4 11 9 0 6 10 8 22
6 12 -3 27 0 33 5 8 7 12 5 12 -5 0 -8 -5 -11 -10 -8 -6 3 -7 1 -3 -5 5 -9 15
-7 34 6 14 9 23 11 19 5 -5 -7 -5 -13 0 -14 4 0 16 -2 25 -4 12 -2 15 2 11 13
-5 14 -2 14 16 -2 15 -14 20 -15 16 -5 -4 11 2 15 24 14 16 0 27 -3 24 -7 -7
-13 11 -9 33 7 21 14 34 11 34 -9 0 -6 -4 -5 -9 3 -6 9 -11 10 -15 2 -4 -6 -4
-11 1 -12 4 0 16 -2 25 -4 12 -2 15 2 10 13 -5 15 -3 15 21 -1 28 -18 36 -11
15 13 -11 12 -10 12 2 4 14 -9 32 -13 82 -17 13 -1 14 -4 6 -14 -8 -11 -7 -12
7 -7 13 5 16 4 11 -4 -7 -11 6 -17 28 -13 5 1 6 -5 3 -13 -4 -10 -1 -13 9 -9
10 4 12 0 7 -13 -5 -12 -3 -15 6 -9 10 5 11 2 6 -14 -4 -13 -2 -21 5 -21 6 0
8 5 5 10 -3 6 -1 10 4 10 14 0 14 -33 1 -46 -7 -7 -6 -11 4 -11 8 0 12 5 9 11
-3 6 -2 8 2 3 12 -10 13 -77 1 -84 -5 -4 -6 -1 -1 7 5 9 4 11 -4 6 -6 -4 -9
-11 -6 -16 3 -4 -1 -11 -7 -14 -7 -3 -2 -3 12 0 l25 7 -20 -23 c-11 -13 -14
-20 -7 -16 14 8 17 -10 2 -19 -5 -3 -7 -12 -4 -19 3 -8 1 -17 -5 -21 -6 -3
-11 -11 -11 -17 0 -5 9 0 20 13 10 13 19 19 20 14 0 -6 -5 -16 -12 -23 -9 -9
-9 -12 1 -12 7 0 9 -5 6 -10 -4 -6 -11 -7 -17 -4 -5 4 -5 -4 2 -16 11 -21 11
-22 -11 -17 -23 6 -23 5 -5 -8 17 -13 18 -15 3 -15 -16 0 -22 -12 -18 -33 1
-5 -3 -6 -9 -2 -13 8 -50 -4 -50 -16 0 -6 6 -7 13 -3 6 4 9 3 4 -1 -4 -5 -17
-10 -29 -12 -17 -3 -18 -1 -9 10 9 12 7 13 -14 9 -28 -5 -58 14 -48 32 4 6 1
6 -9 -2 -13 -10 -18 -9 -29 5 -13 17 -13 17 6 3 18 -14 19 -13 8 1 -7 9 -10
18 -8 21 3 3 -8 4 -24 2 -17 -2 -33 1 -36 6 -4 6 -10 8 -15 5 -5 -3 -11 -1
-14 4 -7 11 13 9 31 -2 7 -5 21 -3 30 3 17 11 17 11 0 6 -11 -3 -24 -3 -30 1
-19 12 -36 12 -43 1 -3 -5 -15 -2 -26 9 -21 18 -21 18 -8 -7 l13 -25 -23 20
c-13 11 -20 15 -17 8 9 -14 -21 -22 -49 -12 -11 4 -27 3 -35 -3 -12 -8 -11 -9
2 -5 9 3 16 -1 16 -9 0 -7 -4 -11 -8 -8 -5 3 -21 -2 -37 -10 -16 -8 -33 -12
-37 -8 -5 4 -5 1 -1 -6 4 -7 12 -9 18 -6 7 4 8 2 4 -4 -7 -12 -31 -6 -55 12
-11 8 -13 8 -7 -1 4 -8 1 -13 -9 -13 -9 0 -14 -4 -11 -8 3 -5 -1 -9 -10 -9
-10 0 -12 7 -8 21 4 16 3 17 -4 7 -6 -8 -17 -11 -27 -8 -9 4 -14 3 -11 -1 3
-5 -1 -9 -9 -9 -8 0 -12 4 -9 9 3 4 -2 8 -10 8 -8 0 -19 6 -23 13 -4 8 -16 17
-26 20 -11 4 -15 12 -11 19 4 7 4 10 -1 6 -4 -4 -15 -2 -24 5 -14 10 -14 10
-3 -5 11 -13 11 -18 0 -24 -7 -4 -10 -4 -6 1 4 4 1 14 -7 21 -15 15 -29 19
-21 6 8 -13 -32 -11 -43 2 -8 9 -7 13 4 13 8 0 12 -4 9 -9 -3 -4 -1 -8 5 -8 5
0 9 9 8 20 -1 13 -5 16 -11 10 -6 -6 -15 -5 -25 3 -12 9 -13 9 -7 0 4 -7 3
-13 -3 -13 -5 0 -12 4 -16 9 -3 6 -14 8 -25 6 -12 -2 -18 0 -15 5 3 5 1 11 -5
15 -7 4 -3 17 10 35 13 18 17 31 10 35 -6 4 -7 11 -4 17 4 6 3 8 -3 5 -6 -4
-10 8 -9 31 0 20 7 41 14 45 15 10 16 27 1 27 -5 0 -7 -4 -4 -10 3 -5 1 -10
-4 -10 -6 0 -11 3 -11 8 0 10 20 39 20 29 0 -4 6 -2 14 5 10 9 11 15 2 20 -7
5 -5 8 6 8 9 0 20 5 24 12 4 7 3 8 -4 4 -7 -4 -12 -3 -12 2 0 17 13 22 28 9
13 -10 14 -9 3 10 -10 20 -9 22 5 16 12 -4 15 -3 10 5 -4 7 -1 12 9 12 9 0 13
5 10 10 -8 13 1 13 28 -2 21 -10 21 -10 7 7 -14 17 -14 18 9 6 20 -11 25 -11
33 3 12 22 18 20 13 -4z m-190 -269 c3 -5 1 -12 -5 -16 -5 -3 -10 1 -10 9 0
18 6 21 15 7z m29 -107 c3 -8 2 -12 -4 -9 -6 3 -10 10 -10 16 0 14 7 11 14 -7z
m411 -64 c-3 -5 -12 -10 -18 -10 -7 0 -6 4 3 10 19 12 23 12 15 0z m-88 -35
c0 -8 -4 -12 -9 -9 -5 3 -6 10 -3 15 9 13 12 11 12 -6z m-422 -463 c-3 -3 -11
0 -18 7 -9 10 -8 11 6 5 10 -3 15 -9 12 -12z m1057 -124 c-7 -7 -12 -8 -12 -2
0 14 12 26 19 19 2 -3 -1 -11 -7 -17z m-736 -22 c2 -16 -24 -17 -30 0 -3 9 1
11 11 7 12 -5 14 -3 8 8 -5 8 -4 11 0 6 5 -4 10 -13 11 -21z m25 -3 c-12 -20
-14 -14 -5 12 4 9 9 14 11 11 3 -2 0 -13 -6 -23z m55 3 c2 -16 -24 -17 -30 0
-3 9 1 11 11 7 12 -5 14 -3 8 8 -5 8 -4 11 0 6 5 -4 10 -13 11 -21z m25 -3
c-12 -20 -14 -14 -5 12 4 9 9 14 11 11 3 -2 0 -13 -6 -23z m55 3 c2 -16 -24
-17 -30 0 -3 9 1 11 11 7 12 -5 14 -3 8 8 -5 8 -4 11 0 6 5 -4 10 -13 11 -21z
m41 2 c2 -18 0 -20 -7 -8 -8 12 -10 13 -10 1 0 -8 -2 -12 -5 -9 -7 7 5 38 14
38 4 0 8 -10 8 -22z m96 4 c15 -16 13 -17 -32 -17 -30 0 -48 4 -48 12 0 8 6 9
18 2 23 -12 32 -12 24 1 -4 6 1 7 11 3 12 -4 15 -3 10 5 -11 18 -1 14 17 -6z
m52 8 c13 11 15 11 13 0 -2 -7 3 -15 11 -18 8 -3 11 0 7 7 -5 7 -1 9 10 4 12
-4 15 -3 10 5 -11 18 -1 14 17 -6 15 -17 14 -18 -36 -18 -49 0 -67 8 -67 31 0
6 4 4 9 -4 8 -12 12 -13 26 -1z m112 -8 c6 2 11 -1 12 -7 1 -5 -5 -10 -11 -10
-14 -1 -28 14 -28 30 0 6 4 4 9 -3 4 -7 13 -12 18 -10z"/>
<path d="M1856 1742 c-3 -5 1 -9 9 -9 8 0 12 4 9 9 -3 4 -7 8 -9 8 -2 0 -6 -4
-9 -8z"/>
<path d="M2363 1565 c0 -8 4 -12 9 -9 5 3 6 10 3 15 -9 13 -12 11 -12 -6z"/>
<path d="M1467 1419 c7 -7 15 -10 18 -7 3 3 -2 9 -12 12 -14 6 -15 5 -6 -5z"/>
<path d="M1970 1359 c0 -5 5 -7 10 -4 6 3 10 8 10 11 0 2 -4 4 -10 4 -5 0 -10
-5 -10 -11z"/>
<path d="M2210 1289 c0 -5 5 -7 10 -4 6 3 10 8 10 11 0 2 -4 4 -10 4 -5 0 -10
-5 -10 -11z"/>
<path d="M2320 1860 c-9 -6 -10 -10 -3 -10 6 0 15 5 18 10 8 12 4 12 -15 0z"/>
<path d="M870 1850 c0 -5 5 -10 10 -10 6 0 10 5 10 10 0 6 -4 10 -10 10 -5 0
-10 -4 -10 -10z"/>
<path d="M613 1775 c0 -8 4 -12 9 -9 5 3 6 10 3 15 -9 13 -12 11 -12 -6z"/>
<path d="M2530 1739 c0 -5 5 -7 10 -4 6 3 10 8 10 11 0 2 -4 4 -10 4 -5 0 -10
-5 -10 -11z"/>
<path d="M475 1710 c-3 -5 -1 -10 4 -10 6 0 11 5 11 10 0 6 -2 10 -4 10 -3 0
-8 -4 -11 -10z"/>
<path d="M900 1716 c0 -2 7 -9 15 -16 9 -7 15 -8 15 -2 0 5 -7 12 -15 16 -8 3
-15 4 -15 2z"/>
<path d="M2545 1680 c-3 -6 1 -7 9 -4 18 7 21 14 7 14 -6 0 -13 -4 -16 -10z"/>
<path d="M423 1653 c0 -9 4 -10 14 -2 7 6 13 12 13 14 0 1 -6 2 -13 2 -8 0
-14 -6 -14 -14z"/>
<path d="M1116 1622 c-3 -5 1 -9 9 -9 8 0 12 4 9 9 -3 4 -7 8 -9 8 -2 0 -6 -4
-9 -8z"/>
<path d="M1319 1583 c-13 -16 -12 -17 4 -4 9 7 17 15 17 17 0 8 -8 3 -21 -13z"/>
<path d="M2510 1596 c0 -2 8 -10 18 -17 15 -13 16 -12 3 4 -13 16 -21 21 -21
13z"/>
<path d="M2554 1575 c0 -13 3 -22 7 -19 8 4 6 30 -2 38 -3 3 -5 -5 -5 -19z"/>
<path d="M1130 1569 c0 -5 5 -7 10 -4 6 3 10 8 10 11 0 2 -4 4 -10 4 -5 0 -10
-5 -10 -11z"/>
<path d="M2504 1564 c1 -9 11 -21 22 -26 18 -9 18 -8 2 5 -10 8 -15 16 -12 19
3 4 1 9 -4 12 -6 3 -9 -1 -8 -10z"/>
<path d="M1116 1542 c-3 -5 1 -9 9 -9 8 0 12 4 9 9 -3 4 -7 8 -9 8 -2 0 -6 -4
-9 -8z"/>
<path d="M2504 1519 c1 -7 12 -13 24 -14 11 -1 19 2 16 7 -4 5 -12 7 -19 4 -8
-3 -16 -1 -19 5 -2 5 -3 4 -2 -2z"/>
<path d="M1126 1447 c3 -10 9 -15 12 -12 3 3 0 11 -7 18 -10 9 -11 8 -5 -6z"/>
<path d="M1110 1416 c0 -2 7 -7 16 -10 8 -3 12 -2 9 4 -6 10 -25 14 -25 6z"/>
<path d="M2546 1398 c3 -5 10 -6 15 -3 13 9 11 12 -6 12 -8 0 -12 -4 -9 -9z"/>
<path d="M2501 1363 c-1 -17 16 -25 25 -12 4 7 3 9 -4 5 -5 -3 -13 0 -15 6 -4
9 -6 10 -6 1z"/>
<path d="M2546 1362 c-3 -5 1 -9 9 -9 8 0 12 4 9 9 -3 4 -7 8 -9 8 -2 0 -6 -4
-9 -8z"/>
<path d="M1126 1327 c3 -10 9 -15 12 -12 3 3 0 11 -7 18 -10 9 -11 8 -5 -6z"/>
<path d="M2530 1330 c-9 -6 -10 -10 -3 -10 6 0 15 5 18 10 8 12 4 12 -15 0z"/>
<path d="M2495 1320 c3 -5 16 -15 28 -21 l22 -11 -22 21 c-23 22 -39 28 -28
11z"/>
<path d="M130 1279 c0 -5 5 -7 10 -4 6 3 10 8 10 11 0 2 -4 4 -10 4 -5 0 -10
-5 -10 -11z"/>
<path d="M2501 1283 c-1 -18 13 -23 29 -11 12 8 12 9 -2 5 -9 -3 -19 -1 -22 6
-3 9 -5 9 -5 0z"/>
<path d="M1050 1207 c0 -2 6 -10 14 -16 11 -9 16 -9 22 1 4 7 4 10 -1 6 -4 -4
-14 -3 -22 3 -7 6 -13 9 -13 6z"/>
<path d="M407 1159 c7 -7 15 -10 18 -7 3 3 -2 9 -12 12 -14 6 -15 5 -6 -5z"/>
<path d="M2550 1159 c0 -5 5 -7 10 -4 6 3 10 8 10 11 0 2 -4 4 -10 4 -5 0 -10
-5 -10 -11z"/>
<path d="M235 1140 c-3 -5 -1 -10 4 -10 6 0 11 5 11 10 0 6 -2 10 -4 10 -3 0
-8 -4 -11 -10z"/>
<path d="M2501 1123 c-1 -17 16 -25 25 -12 4 7 3 9 -4 5 -5 -3 -13 0 -15 6 -4
9 -6 10 -6 1z"/>
<path d="M1126 974 c-5 -14 -4 -15 9 -4 17 14 19 20 6 20 -5 0 -12 -7 -15 -16z"/>
<path d="M2510 980 c-9 -6 -10 -10 -3 -10 6 0 15 5 18 10 8 12 4 12 -15 0z"/>
<path d="M36 913 c-6 -14 -5 -15 5 -6 7 7 10 15 7 18 -3 3 -9 -2 -12 -12z"/>
<path d="M163 754 c0 -7 6 -10 14 -7 7 3 13 8 13 12 0 4 -6 8 -13 8 -8 0 -14
-6 -14 -13z"/>
<path d="M4 733 c-2 -27 -1 -27 14 3 8 15 8 21 -1 21 -7 0 -13 -11 -13 -24z"/>
<path d="M1246 674 c-5 -14 -4 -15 9 -4 17 14 19 20 6 20 -5 0 -12 -7 -15 -16z"/>
<path d="M2256 667 c3 -10 9 -15 12 -12 3 3 0 11 -7 18 -10 9 -11 8 -5 -6z"/>
<path d="M1554 662 c4 -3 14 -7 22 -8 9 -1 13 0 10 4 -4 3 -14 7 -22 8 -9 1
-13 0 -10 -4z"/>
<path d="M1607 649 c7 -7 15 -10 18 -7 3 3 -2 9 -12 12 -14 6 -15 5 -6 -5z"/>
</g>
</svg>
